<?xml version="1.0" encoding="UTF-8" standalone="no"?>
<svg width="175px" height="64px" viewBox="0 0 175 64" version="1.1" xmlns="http://www.w3.org/2000/svg" xmlns:xlink="http://www.w3.org/1999/xlink">
    <!-- Generator: Sketch 45.2 (43514) - http://www.bohemiancoding.com/sketch -->
    <title>WCM-Logo-64</title>
    <desc>Created with Sketch.</desc>
    <defs></defs>
    <g id="icons" stroke="none" stroke-width="1" fill="none" fill-rule="evenodd">
        <g id="iPhone-7" transform="translate(-100.000000, -416.000000)">
            <g id="WCM-Logo-64" transform="translate(100.000000, 416.000000)">
                <g id="WCM-Logo-Copy-3">
                    <rect id="Rectangle-5" fill="#003263" x="0" y="0" width="175" height="64"></rect>
                    <polygon id="Rectangle-2" fill="#FFFAFA" points="9.72222222 9.6969697 24.3055556 9.6969697 30.1388889 32.969697 36.9444444 9.6969697 48.6111111 9.6969697 54.4444444 32.969697 60.2777778 9.6969697 74.8611111 9.6969697 60.2777778 54.3030303 47.6388889 54.3030303 42.2916667 32.969697 36.9444444 54.3030303 23.3333333 54.3030303"></polygon>
                    <polygon id="Rectangle-3" fill="#FFFFFF" points="115.694444 9.6969697 131.25 9.6969697 140.486111 30.0606061 150.694444 9.6969697 165.277778 9.6969697 165.277778 54.3030303 152.638889 54.3030303 152.638889 32.969697 140.486111 54.3030303 128.542433 32 128.542433 54.3030303 115.694444 54.3030303"></polygon>
                </g>
                <g id="C" transform="translate(73.521827, 9.660294)">
                    <path d="M32.532882,3.15220588 L32.532882,3.04861245 L32.5328851,3.04861436 C29.342782,1.10970532 25.6390262,5.68434189e-14 21.688588,5.68434189e-14 C9.7103116,5.68434189e-14 2.84217094e-14,10.2024809 2.84217094e-14,22.7878788 C2.84217094e-14,35.3732767 9.7103116,45.5757576 21.688588,45.5757576 C25.6390274,45.5757576 29.3427842,44.4660516 32.532888,42.5271415" id="Combined-Shape" fill="#F3C00F"></path>
                    <path d="M32.532882,10.1249785 C32.532882,10.1249785 30.0290678,8.53296403 28.6751861,8.19363222 C28.6285337,8.18193943 28.5832466,8.17173404 28.5394745,8.16313244 C27.2254084,7.90490733 24.546067,8.16313244 24.546067,8.16313244 C24.546067,8.16313244 23.2700666,8.46302031 22.5493632,8.81708112 C21.8286598,9.17114194 21.2182274,10.1249785 21.2182274,10.1249785 L20.5526594,8.16313244 C20.5526594,8.16313244 20.2202245,7.19128489 20.2098206,6.20128641 C20.2013895,5.39901027 20.5081452,4.58933717 20.5526594,4.23944037 C20.6521036,3.45777538 21.8837953,0.96969697 21.8837953,0.96969697 L19.8870915,2.93154301 C19.8870915,2.93154301 19.1003152,3.46710565 18.5559557,4.89338905 C18.0115962,6.31967244 18.0343298,6.89027017 17.8903878,8.16313244 C17.7464457,9.43599472 17.8903878,10.7789272 17.8903878,10.7789272 C17.8903878,11.4099653 18.5559557,12.0868245 18.5559557,12.7407732 C18.5559557,13.3947219 17.8903878,14.0486706 17.8903878,14.0486706 C17.8903878,14.0486706 16.9641116,14.0958822 15.893684,13.3947219 C14.8232564,12.6935616 13.8969802,12.0868245 13.8969802,12.0868245 C13.8969802,12.0868245 12.2383455,11.4328758 11.2347085,11.4328758 C10.2310716,11.4328758 9.23800478,11.4328758 9.23800478,11.4328758 C9.23800478,11.4328758 8.06473512,11.9652221 7.90686894,12.7407732 C7.74900276,13.5163243 8.57243686,14.7026192 8.57243686,14.7026192 C8.57243686,14.7026192 9.28824396,15.9087321 9.9035727,16.6644653 C10.5189014,17.4201985 10.294862,17.4182992 11.2347085,17.9723626 C12.1745551,18.5264261 13.2314123,18.6263113 13.2314123,18.6263113 C13.2314123,18.6263113 15.408514,18.4674113 15.893684,18.6263113 C16.378854,18.7852113 17.2248198,19.9342087 17.2248198,19.9342087 L17.2248198,21.242106 L17.2248198,24.5118494 L17.8903878,27.1276442 L19.2215236,29.0894902 L19.8870915,31.0513362 L19.8870915,33.0131823 L19.2215236,34.9750283 L19.2215236,36.2829257 L19.2215236,37.590823 L20.5526594,38.2447717 L21.8837953,38.2447717 C21.8837953,38.2447717 21.1799477,39.091629 21.8837953,39.5526691 C22.5876429,40.0137091 23.2149311,39.5526691 23.880499,39.5526691 L26.5427707,39.5526691 L27.8739066,39.5526691 L29.2050424,38.8987204 L31.2017462,38.8987204 L31.2017462,38.2447717 L32.532882,38.2447717 L32.532882,10.1249785 Z" id="Path-3-Copy" fill="#003263"></path>
                    <rect id="Rectangle" fill="#003266" x="32.31766" y="10.0897059" width="3.28405919" height="28.125"></rect>
                </g>
            </g>
        </g>
    </g>
</svg>