<?xml version="1.0" encoding="UTF-8" standalone="no"?>
<svg width="137px" height="50px" viewBox="0 0 137 50" version="1.1" xmlns="http://www.w3.org/2000/svg" xmlns:xlink="http://www.w3.org/1999/xlink">
    <!-- Generator: Sketch 45.2 (43514) - http://www.bohemiancoding.com/sketch -->
    <title>WCM-Logo-64 Copy</title>
    <desc>Created with Sketch.</desc>
    <defs></defs>
    <g id="icons" stroke="none" stroke-width="1" fill="none" fill-rule="evenodd">
        <g id="iPhone-7" transform="translate(-119.000000, -807.000000)">
            <g id="WCM-Logo-64-Copy" transform="translate(119.000000, 807.000000)">
                <g id="WCM-Logo-Copy-4">
                    <rect id="Rectangle-5" fill="#003263" x="0" y="0" width="137" height="50"></rect>
                    <polygon id="Rectangle-2" fill="#FFFAFA" points="7.61111111 7.57575758 19.0277778 7.57575758 23.5944444 25.7575758 28.9222222 7.57575758 38.0555556 7.57575758 42.6222222 25.7575758 47.1888889 7.57575758 58.6055556 7.57575758 47.1888889 42.4242424 37.2944444 42.4242424 33.1083333 25.7575758 28.9222222 42.4242424 18.2666667 42.4242424"></polygon>
                    <polygon id="Rectangle-3" fill="#FFFFFF" points="90.5722222 7.57575758 102.75 7.57575758 109.980556 23.4848485 117.972222 7.57575758 129.388889 7.57575758 129.388889 42.4242424 119.494444 42.4242424 119.494444 25.7575758 109.980556 42.4242424 100.630362 25 100.630362 42.4242424 90.5722222 42.4242424"></polygon>
                </g>
                <g id="C" transform="translate(57.557087, 7.547105)">
                    <path d="M25.4685991,2.46266085 L25.4685991,2.38172848 L25.4686015,2.38172997 C22.9712064,0.866957281 20.0716948,5.68434189e-14 16.979066,5.68434189e-14 C7.6017868,5.68434189e-14 2.84217094e-14,7.97068817 2.84217094e-14,17.8030303 C2.84217094e-14,27.6353724 7.6017868,35.6060606 16.979066,35.6060606 C20.0716957,35.6060606 22.9712082,34.7391028 25.4686038,33.2243293" id="Combined-Shape" fill="#F3C00F"></path>
                    <path d="M25.4685991,7.91013944 C25.4685991,7.91013944 23.5084702,6.66637815 22.4485743,6.40127517 C22.4120521,6.39214018 22.3765988,6.38416722 22.3423315,6.37744722 C21.3136055,6.17570885 19.2160638,6.37744722 19.2160638,6.37744722 C19.2160638,6.37744722 18.2171379,6.61173461 17.65293,6.88834463 C17.0887222,7.16495464 16.6108408,7.91013944 16.6108408,7.91013944 L16.0897962,6.37744722 C16.0897962,6.37744722 15.8295472,5.61819132 15.8214024,4.844755 C15.8148021,4.21797678 16.054948,3.58541967 16.0897962,3.31206279 C16.1676468,2.70138701 17.1318854,0.757575758 17.1318854,0.757575758 L15.5687516,2.29026798 C15.5687516,2.29026798 14.9528182,2.70867629 14.5266624,3.82296019 C14.1005067,4.93724409 14.1183039,5.38302357 14.0056178,6.37744722 C13.8929318,7.37187088 14.0056178,8.42103685 14.0056178,8.42103685 C14.0056178,8.91403538 14.5266624,9.44283166 14.5266624,9.95372906 C14.5266624,10.4646265 14.0056178,10.9755239 14.0056178,10.9755239 C14.0056178,10.9755239 13.2804759,11.012408 12.442484,10.4646265 C11.6044922,9.91684498 10.8793502,9.44283166 10.8793502,9.44283166 C10.8793502,9.44283166 9.58087622,8.93193425 8.79517183,8.93193425 C8.00946744,8.93193425 7.23203803,8.93193425 7.23203803,8.93193425 C7.23203803,8.93193425 6.3135355,9.34782979 6.18994883,9.95372906 C6.06636216,10.5596283 6.71099343,11.4864213 6.71099343,11.4864213 C6.71099343,11.4864213 7.27136813,12.4286969 7.75308263,13.0191135 C8.23479713,13.6095301 8.05940624,13.6080462 8.79517183,14.0409083 C9.53093743,14.4737704 10.3583056,14.5518057 10.3583056,14.5518057 C10.3583056,14.5518057 12.0626652,14.4276651 12.442484,14.5518057 C12.8223028,14.6759464 13.4845732,15.5736005 13.4845732,15.5736005 L13.4845732,16.5953953 L13.4845732,19.1498824 L14.0056178,21.193472 L15.047707,22.7261642 L15.5687516,24.2588564 L15.5687516,25.7915486 L15.047707,27.3242409 L15.047707,28.3460357 L15.047707,29.3678305 L16.0897962,29.8787279 L17.1318854,29.8787279 C17.1318854,29.8787279 16.5808733,30.5403352 17.1318854,30.9005227 C17.6828976,31.2607103 18.1739746,30.9005227 18.6950192,30.9005227 L20.7791976,30.9005227 L21.8212869,30.9005227 L22.8633761,30.3896253 L24.4265099,30.3896253 L24.4265099,29.8787279 L25.4685991,29.8787279 L25.4685991,7.91013944 Z" id="Path-3-Copy" fill="#003263"></path>
                    <rect id="Rectangle" fill="#003266" x="25.300111" y="7.88258272" width="2.5709492" height="21.9726562"></rect>
                </g>
            </g>
        </g>
    </g>
</svg>