<svg xmlns:inkscape="http://www.inkscape.org/namespaces/inkscape" xmlns:dc="http://purl.org/dc/elements/1.1/" xmlns:sodipodi="http://sodipodi.sourceforge.net/DTD/sodipodi-0.dtd" xmlns:rdf="http://www.w3.org/1999/02/22-rdf-syntax-ns#" xmlns:svg="http://www.w3.org/2000/svg" xmlns:cc="http://creativecommons.org/ns#" xmlns="http://www.w3.org/2000/svg" xmlns:xlink="http://www.w3.org/1999/xlink" version="1.1" x="0px" y="0px" viewBox="0 0 100 100" enable-background="new 0 0 100 100" xml:space="preserve"><g transform="translate(0,-952.36218)"><path d="M18.082,970.175c-1.284,0.012-2.576,0.307-3.75,1.062c-1.611,1.037-2.526,2.618-3.188,4.312   s-1.134,3.549-1.781,5.562c-1.294,4.027-3.263,8.621-8.844,13.281c-0.638,0.528-0.727,1.474-0.198,2.112   c0.218,0.263,0.52,0.444,0.854,0.513c5.284,1.095,9.591,0.912,13.031-1.031c1.375-0.777,2.571-1.81,3.625-3.094   c0.438,0.734,0.874,1.247,1.094,1.656c0.243,0.451,0.41,0.86,0.312,1.75c-0.003,0.027-0.028,0.066-0.031,0.094   c-0.024,0.113-0.039,0.229-0.062,0.344c-0.053,0.26-0.078,0.519-0.125,0.781c-0.032,0.102-0.053,0.206-0.062,0.312   c-0.286,1.705-0.469,3.465-0.469,5.25c0,17.379,14.121,31.5,31.5,31.5c17.379,0,31.5-14.121,31.5-31.5c0-1.873-0.186-3.716-0.5-5.5   c-0.051-0.285-0.098-0.562-0.156-0.844c-0.029-0.146-0.062-0.292-0.094-0.438c-0.098-0.89,0.07-1.299,0.312-1.75   c0.221-0.409,0.656-0.922,1.094-1.656c1.054,1.284,2.25,2.317,3.625,3.094c3.44,1.943,7.747,2.126,13.031,1.031   c0.812-0.166,1.335-0.959,1.169-1.771c-0.068-0.335-0.249-0.637-0.513-0.854c-5.58-4.66-7.55-9.254-8.844-13.281   c-0.646-2.014-1.12-3.868-1.781-5.562s-1.576-3.275-3.188-4.312c-1.566-1.008-3.356-1.233-5.031-1   c-1.675,0.233-3.303,0.844-4.969,1.562c-3.321,1.433-6.82,3.242-10.5,3.656c-0.008-0.004-0.023,0.004-0.031,0   c-4.495-2.473-9.639-3.875-15.125-3.875s-10.63,1.402-15.125,3.875c-0.01-0.001-0.021,0.001-0.031,0   c-3.68-0.415-7.179-2.224-10.5-3.656c-1.666-0.719-3.294-1.33-4.969-1.562C18.944,970.179,18.51,970.171,18.082,970.175z    M18.113,973.143c0.266,0.003,0.548,0.021,0.844,0.062c1.184,0.165,2.603,0.66,4.188,1.344c2.345,1.011,5.035,2.399,8.062,3.25   c-4.709,3.507-8.427,8.29-10.594,13.844c-0.24-0.349-0.462-0.703-0.625-1.094c-0.064-0.172-0.16-0.331-0.281-0.469   c0.751-1.37,1.411-2.908,2-4.625c0.268-0.785-0.152-1.639-0.938-1.906s-1.639,0.152-1.906,0.938l0,0   c-1.596,4.654-3.543,7.417-6.125,8.875c-1.964,1.109-4.679,1.311-7.906,1c4.232-4.335,6.246-8.701,7.406-12.312   c0.685-2.132,1.136-3.994,1.688-5.406c0.551-1.413,1.132-2.328,2.031-2.906C16.64,973.298,17.316,973.132,18.113,973.143z    M81.863,973.143c0.797-0.011,1.474,0.154,2.156,0.594c0.898,0.578,1.48,1.494,2.031,2.906c0.551,1.412,1.002,3.274,1.688,5.406   c1.16,3.612,3.174,7.978,7.406,12.312c-3.228,0.311-5.941,0.109-7.906-1c-2.582-1.458-4.529-4.221-6.125-8.875   c-0.268-0.785-1.121-1.205-1.906-0.938s-1.205,1.121-0.938,1.906l0,0c0.593,1.728,1.242,3.281,2,4.656   c-0.119,0.128-0.214,0.276-0.281,0.438c-0.162,0.391-0.385,0.745-0.625,1.094c-2.166-5.554-5.885-10.336-10.594-13.844   c3.027-0.851,5.718-2.239,8.062-3.25c1.584-0.684,3.004-1.179,4.188-1.344C81.315,973.165,81.598,973.147,81.863,973.143z    M49.988,974.581c13.698,0,25.093,9.631,27.844,22.5c0.043,0.314,0.107,0.627,0.188,0.969c0.02,0.151,0.062,0.299,0.125,0.438   c0.241,1.495,0.344,3.03,0.344,4.594c0,15.758-12.742,28.5-28.5,28.5s-28.5-12.742-28.5-28.5c0-1.598,0.124-3.163,0.375-4.688   c0-0.011,0-0.021,0-0.031c0.042-0.101,0.074-0.205,0.094-0.312c0.059-0.248,0.086-0.486,0.125-0.719   c0.004-0.022,0.027-0.04,0.031-0.062c0.011-0.066,0.022-0.123,0.031-0.188C24.896,984.212,36.29,974.581,49.988,974.581z"></path><path d="M49.988,1006.572c-6.333,0-11.5,5.167-11.5,11.5s5.167,11.5,11.5,11.5   c6.334,0,11.5-5.167,11.5-11.5S56.322,1006.572,49.988,1006.572z M49.988,1009.572c4.713,0,8.5,3.788,8.5,8.5s-3.787,8.5-8.5,8.5   c-4.712,0-8.5-3.788-8.5-8.5S45.276,1009.572,49.988,1009.572z"></path><path d="M47.988,1018.572   c0,0.828-0.671,1.5-1.5,1.5s-1.5-0.672-1.5-1.5c0-0.829,0.671-1.5,1.5-1.5S47.988,1017.743,47.988,1018.572z"></path><path d="M54.988,1018.572   c0,0.828-0.672,1.5-1.5,1.5s-1.5-0.672-1.5-1.5c0-0.829,0.672-1.5,1.5-1.5S54.988,1017.743,54.988,1018.572z"></path><path d="M37.988,997.572   c0,0.828-0.671,1.5-1.5,1.5s-1.5-0.672-1.5-1.5c0-0.829,0.671-1.5,1.5-1.5S37.988,996.744,37.988,997.572z"></path><path d="M64.988,997.572   c0,0.828-0.672,1.5-1.5,1.5s-1.5-0.672-1.5-1.5c0-0.829,0.672-1.5,1.5-1.5S64.988,996.744,64.988,997.572z"></path></g></svg>